<mxfile host="app.diagrams.net" modified="2024-03-26T02:48:42.505Z" agent="Mozilla/5.0 (Windows NT 10.0; Win64; x64) AppleWebKit/537.36 (KHTML, like Gecko) Chrome/122.0.0.0 Safari/537.36 Edg/122.0.0.0" version="24.1.0" etag="8ARYDEh8RXfrYU7gp0_2" type="github">
  <diagram name="第 1 页" id="JrNRcv1QaadsaY-kJl6s">
    <mxGraphModel>
      <root>
        <mxCell id="0" />
        <mxCell id="1" parent="0" />
      </root>
    </mxGraphModel>
  </diagram>
</mxfile>
